<?xml version="1.0" encoding="UTF-8" standalone="no"?>
<svg
   width="48"
   height="48"
   version="1.1"
   id="svg43"
   sodipodi:docname="fordev.svg"
   inkscape:version="1.3 (0e150ed6c4, 2023-07-21)"
   inkscape:export-filename="settings.png"
   inkscape:export-xdpi="512"
   inkscape:export-ydpi="512"
   xmlns:inkscape="http://www.inkscape.org/namespaces/inkscape"
   xmlns:sodipodi="http://sodipodi.sourceforge.net/DTD/sodipodi-0.dtd"
   xmlns:xlink="http://www.w3.org/1999/xlink"
   xmlns="http://www.w3.org/2000/svg"
   xmlns:svg="http://www.w3.org/2000/svg">
  <sodipodi:namedview
     id="namedview45"
     pagecolor="#ffffff"
     bordercolor="#000000"
     borderopacity="0.25"
     inkscape:showpageshadow="2"
     inkscape:pageopacity="0.0"
     inkscape:pagecheckerboard="0"
     inkscape:deskcolor="#d1d1d1"
     showgrid="false"
     inkscape:zoom="8.66"
     inkscape:cx="13.279446"
     inkscape:cy="12.644342"
     inkscape:window-width="1366"
     inkscape:window-height="705"
     inkscape:window-x="-8"
     inkscape:window-y="-8"
     inkscape:window-maximized="1"
     inkscape:current-layer="svg43"
     inkscape:pageshadow="2" />
  <defs
     id="defs23">
    <linearGradient
       id="linearGradient9002"
       x1="-44.389999"
       x2="-14.394"
       gradientUnits="userSpaceOnUse"
       gradientTransform="translate(58.788,33.941)">
      <stop
         stop-color="#b0b8b8"
         id="stop8998"
         offset="0"
         style="stop-color:#c2b653;stop-opacity:1;" />
      <stop
         offset="1"
         stop-color="#eff1f1"
         id="stop9000"
         style="stop-color:#fcfc6d;stop-opacity:1;" />
    </linearGradient>
    <linearGradient
       id="a"
       x1="-44.389999"
       x2="-14.394"
       gradientUnits="userSpaceOnUse"
       gradientTransform="matrix(0.79999998,0,0,0.79999997,52.909076,30.546561)">
      <stop
         stop-color="#b0b8b8"
         id="stop2"
         offset="0"
         style="stop-color:#4d1357;stop-opacity:1;" />
      <stop
         offset="1"
         stop-color="#eff1f1"
         id="stop4"
         style="stop-color:#841e91;stop-opacity:1;" />
    </linearGradient>
    <linearGradient
       id="b"
       y1="12.997"
       y2="32.130001"
       x1="17.427999"
       x2="36.550999"
       gradientUnits="userSpaceOnUse">
      <stop
         stop-color="#abf9c7"
         id="stop7" />
      <stop
         offset="1"
         stop-color="#54d883"
         id="stop9" />
    </linearGradient>
    <linearGradient
       id="c"
       y1="32.721001"
       y2="12.32"
       x1="33.404999"
       gradientUnits="userSpaceOnUse"
       x2="17.759001"
       gradientTransform="translate(8.96,-11.154286)">
      <stop
         stop-color="#197cf1"
         id="stop12" />
      <stop
         offset="1"
         stop-color="#20bcfa"
         id="stop14" />
    </linearGradient>
    <linearGradient
       xlink:href="#linearGradient9002"
       id="d"
       y1="15.778"
       x1="3.2420001"
       y2="37"
       x2="40"
       gradientUnits="userSpaceOnUse"
       gradientTransform="matrix(-0.96593,-0.25882,0.25882,-0.96593,40.971,53.39)" />
    <linearGradient
       id="e"
       y1="23"
       x1="24"
       y2="39"
       x2="40"
       gradientUnits="userSpaceOnUse"
       gradientTransform="translate(0.17331023,0.05777008)">
      <stop
         stop-color="#292c2f"
         id="stop18" />
      <stop
         offset="1"
         stop-opacity="0"
         id="stop20" />
    </linearGradient>
  </defs>
  <g
     id="g21631"
     transform="matrix(1.1974102,0,0,1.2004777,-4.798978,-4.8113172)">
    <path
       fill="url(#d)"
       d="m 21.951885,43.88376 c 1.361884,0.142213 2.734772,0.14419 4.097059,0.0059 l 0.475,-3.1 c 1.26221,-0.189035 2.499119,-0.519609 3.687344,-0.985474 l 1.956,2.441 c 1.250229,-0.561198 2.439467,-1.249408 3.54897,-2.053782 l -1.135,-2.911 c 1.00171,-0.793675 1.910726,-1.697778 2.709819,-2.695171 l 2.893,1.127 c 0.803351,-1.111055 1.490325,-2.301774 2.050081,-3.553369 l -2.422,-1.941 c 0.236918,-0.594237 0.440105,-1.201373 0.608591,-1.818511 0.158239,-0.618088 0.281556,-1.244595 0.369366,-1.876546 l 3.094,-0.475 c 0.142213,-1.361884 0.14419,-2.734772 0.0059,-4.097059 l -3.1,-0.475 c -0.189035,-1.26221 -0.519609,-2.499119 -0.985474,-3.687344 l 2.441,-1.956 c -0.561198,-1.250229 -1.249408,-2.439467 -2.053782,-3.54897 l -2.911,1.135 c -0.793598,-1.001625 -1.697603,-1.910573 -2.694886,-2.70962 L 35.713,7.816 C 34.601894,7.0126343 33.411121,6.3256561 32.15947,5.765905 L 30.22,8.188 C 29.625255,7.950976 29.017595,7.7477392 28.399924,7.579261 27.781836,7.4210225 27.155329,7.2977054 26.523378,7.209895 L 26.05,4.116 C 24.688117,3.9737839 23.315229,3.9718035 21.952942,4.11009 L 21.476,7.21 C 20.213883,7.3991447 18.977078,7.7298097 17.788962,8.195745 L 15.833,5.755 c -1.250229,0.5611983 -2.439467,1.249409 -3.54897,2.053784 l 1.135,2.911 c -1.00171,0.793675 -1.910726,1.697778 -2.709819,2.695171 L 7.816,12.287 c -0.8033513,1.111055 -1.4903246,2.301774 -2.050081,3.553369 l 2.422,1.941 C 7.9510009,18.375606 7.747814,18.982742 7.579328,19.59988 7.4210895,20.217968 7.2977724,20.844475 7.209962,21.476426 l -3.094,0.475 c -0.1422161,1.361883 -0.1441965,2.734771 -0.00591,4.097058 l 3.1,0.475 c 0.1890352,1.26221 0.5196098,2.499119 0.985475,3.687344 l -2.441,1.956 c 0.5611983,1.250229 1.249409,2.439467 2.053784,3.54897 l 2.911,-1.135 c 0.793675,1.00171 1.697778,1.910726 2.695171,2.709819 l -1.127,2.893 c 1.111055,0.803351 2.301774,1.490325 3.553369,2.050081 l 1.941,-2.422 c 0.594237,0.236918 1.201373,0.440105 1.818511,0.608591 0.618088,0.158239 1.244595,0.281556 1.876546,0.369366 z M 24,36 c -6.302986,0 -12,-5.628936 -12,-12 0,-6.284739 5.858354,-12 12,-12 5.410513,0 12,4.765988 12,12 0,5.731958 -4.474237,9.920277 -12,12"
       id="path27"
       sodipodi:nodetypes="ccccccccccccccccccccccccccccccccccccccccccccccccccccccsssc"
       style="color:#000000;fill:url(#d);stroke-width:3;stroke-linejoin:round" />
    <ellipse
       fill="url(#a)"
       cx="29.393877"
       cy="16.970562"
       stroke-linecap="round"
       transform="rotate(15)"
       id="circle25"
       style="color:#000000;fill:url(#a);stroke-width:2.39999;stroke-linejoin:round"
       rx="11.999999"
       ry="12" />
  </g>
</svg>
